<?xml version="1.0" standalone="no"?>
<!DOCTYPE svg PUBLIC "-//W3C//DTD SVG 20010904//EN"
 "http://www.w3.org/TR/2001/REC-SVG-20010904/DTD/svg10.dtd">
<svg version="1.0" xmlns="http://www.w3.org/2000/svg"
 width="500.000000pt" height="500.000000pt" viewBox="0 0 500.000000 500.000000"
 preserveAspectRatio="xMidYMid meet">
<metadata>
Created by potrace 1.11, written by Peter Selinger 2001-2013
</metadata>
<g transform="translate(0.000000,500.000000) scale(0.100000,-0.100000)"
fill="#000000" stroke="none">
<path d="M400 2865 l0 -1835 243 2 242 3 2 800 c1 440 2 815 2 833 l1 32 355
0 c195 0 355 -4 355 -8 0 -5 -9 -34 -19 -64 -21 -61 -57 -203 -66 -258 -3 -19
-10 -60 -15 -90 -28 -162 -30 -532 -5 -655 3 -11 7 -36 9 -55 17 -120 74 -301
144 -459 205 -459 608 -771 1122 -867 164 -31 452 -26 650 10 215 40 499 173
670 314 239 197 441 532 515 852 0 3 5 23 10 45 5 22 9 42 10 45 0 3 4 27 9
53 4 27 9 59 12 70 17 88 23 365 11 507 -36 426 -187 800 -427 1055 -250 267
-559 421 -950 474 -65 9 -407 7 -445 -2 -11 -3 -42 -8 -70 -11 -175 -24 -438
-125 -578 -223 -136 -95 -195 -146 -295 -256 l-42 -47 -483 0 -482 0 2 562 c1
310 2 566 2 571 1 4 449 7 996 7 l995 0 -1 215 0 215 -1240 0 -1239 0 0 -1835z
m2951 401 c432 -110 722 -435 818 -915 30 -145 33 -180 36 -381 4 -235 -19
-418 -75 -590 -117 -364 -387 -634 -735 -735 -117 -33 -180 -40 -360 -38 -124
1 -166 5 -246 26 -256 67 -453 199 -611 412 -124 165 -210 394 -235 625 -15
137 -8 495 11 595 2 11 7 40 11 65 17 111 81 327 106 356 9 11 64 14 275 14
l264 0 0 215 0 214 -72 3 -72 3 87 43 c117 58 226 92 342 107 28 4 52 9 54 11
2 2 72 2 155 -1 117 -3 173 -9 247 -29z"/>
</g>
</svg>
